<svg width="19" height="44" viewBox="0 0 19 44" fill="none" xmlns="http://www.w3.org/2000/svg">
<g clip-path="url(#clip0_10_98)">
<path d="M8.55875 43.55H5.68375V42.425C4.80875 43.8 3.6525 44.2063 2.215 43.6438C0.73583 43.0396 -0.00374985 41.6958 -0.00374985 39.6125V17.6125C-0.00374985 15.5083 0.73583 14.175 2.215 13.6125C3.6525 13.05 4.80875 13.4667 5.68375 14.8625V0.300003H8.55875V43.55ZM5.68375 17.6125C5.68375 16.6958 5.215 16.2375 4.2775 16.2375C3.34 16.2375 2.87125 16.6958 2.87125 17.6125V39.6125C2.87125 40.5292 3.34 40.9875 4.2775 40.9875C5.215 41.0083 5.68375 40.55 5.68375 39.6125V17.6125Z" fill="black"/>
<path d="M13.157 43.545H10.282V0.326302H13.157V1.4825C14.0528 0.107503 15.209 -0.309197 16.6257 0.232503C18.1049 0.774203 18.8445 2.1075 18.8445 4.2325V25.8575C18.8445 28.0242 18.1049 29.3783 16.6257 29.92C15.209 30.4408 14.0528 30.0033 13.157 28.6075V43.545ZM13.157 25.8888C13.157 26.8054 13.6257 27.2638 14.5632 27.2638C15.5007 27.2638 15.9695 26.795 15.9695 25.8575V4.2325C15.9695 3.3158 15.5007 2.8575 14.5632 2.8575C13.6257 2.8575 13.157 3.3158 13.157 4.2325V25.8888Z" fill="black"/>
</g>
<defs>
<clipPath id="clip0_10_98">
<rect width="18.85" height="43.89" fill="white"/>
</clipPath>
</defs>
</svg>
