<svg width="200" height="200" viewBox="0 0 200 200" fill="none" xmlns="http://www.w3.org/2000/svg">
<circle cx="100" cy="100" r="97.5" fill="#D9D9D9" fill-opacity="0.02" stroke="black" stroke-width="5"/>
<path d="M58.2 122.56C58.2 123.867 57.8 124.76 57 125.24C56.4133 125.56 55.44 125.72 54.08 125.72V138H51.52V109.36H54.56C56.9867 109.36 58.2 110.413 58.2 112.52V122.56ZM55.6 122.56V112.52C55.6 111.747 55.28 111.36 54.64 111.36H54.08V123.68H54.64C55.28 123.68 55.6 123.307 55.6 122.56ZM66.2878 135.08C66.2878 137.293 65.1678 138.4 62.9278 138.4C60.7145 138.4 59.6078 137.293 59.6078 135.08V109.36H62.2078V135.16C62.2078 135.853 62.4478 136.2 62.9278 136.2C63.4611 136.2 63.7278 135.853 63.7278 135.16V109.36H66.2878V135.08ZM73.9597 124.52H70.9197V138H68.3597V109.36H73.9597V111.72H70.9197V122.28H73.9597V124.52ZM80.9519 124.52H77.9119V138H75.3519V109.36H80.9519V111.72H77.9119V122.28H80.9519V124.52ZM93.7469 122.56C93.7469 123.867 93.3469 124.76 92.5469 125.24C91.9602 125.56 90.9869 125.72 89.6269 125.72V138H87.0669V109.36H90.1069C92.5335 109.36 93.7469 110.413 93.7469 112.52V122.56ZM91.1469 122.56V112.52C91.1469 111.747 90.8269 111.36 90.1869 111.36H89.6269V123.68H90.1869C90.8269 123.68 91.1469 123.307 91.1469 122.56ZM101.835 135.08C101.835 137.293 100.715 138.4 98.4747 138.4C96.2614 138.4 95.1547 137.293 95.1547 135.08V109.36H97.7547V135.16C97.7547 135.853 97.9947 136.2 98.4747 136.2C99.008 136.2 99.2747 135.853 99.2747 135.16V109.36H101.835V135.08ZM109.507 124.52H106.467V138H103.907V109.36H109.507V111.72H106.467V122.28H109.507V124.52ZM116.499 124.52H113.459V138H110.899V109.36H116.499V111.72H113.459V122.28H116.499V124.52ZM129.454 134.84C129.454 136.947 128.24 138 125.814 138H122.774V109.48H125.814C128.24 109.48 129.454 110.533 129.454 112.64V134.84ZM126.854 134.76V112.6C126.854 111.827 126.534 111.44 125.894 111.44H125.334V135.88H125.894C126.534 135.88 126.854 135.507 126.854 134.76ZM138.245 135.44C138.245 136.293 137.885 136.973 137.165 137.48C136.551 137.907 135.791 138.12 134.885 138.12C132.591 138.12 131.445 136.987 131.445 134.72V112.84C131.445 110.6 132.578 109.48 134.845 109.48C135.751 109.48 136.511 109.667 137.125 110.04C137.871 110.493 138.245 111.147 138.245 112V124.6H134.045V135.44C134.045 135.92 134.325 136.16 134.885 136.16C135.391 136.16 135.645 135.92 135.645 135.44V125.84H138.245V135.44ZM135.645 122.84V112.04C135.645 111.56 135.391 111.32 134.885 111.32C134.325 111.32 134.045 111.56 134.045 112.04V122.84H135.645ZM147.353 109.36L145.353 138H141.633L139.553 109.36H142.113L143.513 134.6L144.873 109.36H147.353Z" fill="black"/>
<path d="M97.9688 93.9H95.0938V92.775C94.2188 94.15 93.0625 94.5563 91.625 93.9938C90.1458 93.3896 89.4062 92.0458 89.4062 89.9625V67.9625C89.4062 65.8583 90.1458 64.525 91.625 63.9625C93.0625 63.4 94.2188 63.8167 95.0938 65.2125V50.65H97.9688V93.9ZM95.0938 67.9625C95.0938 67.0458 94.625 66.5875 93.6875 66.5875C92.75 66.5875 92.2812 67.0458 92.2812 67.9625V89.9625C92.2812 90.8792 92.75 91.3375 93.6875 91.3375C94.625 91.3583 95.0938 90.9 95.0938 89.9625V67.9625Z" fill="black"/>
<path d="M102.567 93.895H99.692V50.6763H102.567V51.8325C103.463 50.4575 104.619 50.0408 106.036 50.5825C107.515 51.1242 108.254 52.4575 108.254 54.5825V76.2075C108.254 78.3742 107.515 79.7283 106.036 80.27C104.619 80.7908 103.463 80.3533 102.567 78.9575V93.895ZM102.567 76.2388C102.567 77.1554 103.036 77.6138 103.973 77.6138C104.911 77.6138 105.379 77.145 105.379 76.2075V54.5825C105.379 53.6658 104.911 53.2075 103.973 53.2075C103.036 53.2075 102.567 53.6658 102.567 54.5825V76.2388Z" fill="black"/>
</svg>
